<?xml version="1.0" encoding="utf-8"?><svg xmlns="http://www.w3.org/2000/svg" xmlns:xlink="http://www.w3.org/1999/xlink"><symbol viewBox="0 0 15 10" id="arrow-right_svg" xmlns="http://www.w3.org/2000/svg"><path fill-rule="evenodd" clip-rule="evenodd" d="M14.835 4.608a.55.55 0 010 .785l-4.513 4.445a.57.57 0 01-.797 0 .55.55 0 010-.786l3.549-3.497H.564A.56.56 0 010 5a.56.56 0 01.564-.556h12.51L9.524.95a.55.55 0 010-.786.567.567 0 01.798 0l4.513 4.445z"/></symbol><symbol viewBox="0 0 10 5" id="arrow_button_svg" xmlns="http://www.w3.org/2000/svg"><path fill-rule="evenodd" clip-rule="evenodd" d="M0 0h10L5 5 0 0z"/></symbol><symbol viewBox="0 0 40 40" id="bell_svg" xmlns="http://www.w3.org/2000/svg"><path d="M34.063 23.119v.23l.102.209 3.928 8.042a.864.864 0 01-.775 1.245H24.809v1.181a4.973 4.973 0 11-9.947 0v-1.181H2.364a.864.864 0 01-.775-1.244V31.6l3.929-8.043.101-.207V15.434a13.91 13.91 0 018.894-13.128l.008-.003.007-.003.004-.002.018-.007.084-.032a18.327 18.327 0 011.533-.493c1.004-.274 2.298-.536 3.543-.536 1.25 0 2.612.263 3.69.54a22.373 22.373 0 011.756.53l.017.007a14.143 14.143 0 018.891 13.128v7.684z"/></symbol><symbol viewBox="0 0 320 512" id="close_svg" xmlns="http://www.w3.org/2000/svg"><path d="M193.94 256L296.5 153.44l21.15-21.15c3.12-3.12 3.12-8.19 0-11.31l-22.63-22.63c-3.12-3.12-8.19-3.12-11.31 0L160 222.06 36.29 98.34c-3.12-3.12-8.19-3.12-11.31 0L2.34 120.97c-3.12 3.12-3.12 8.19 0 11.31L126.06 256 2.34 379.71c-3.12 3.12-3.12 8.19 0 11.31l22.63 22.63c3.12 3.12 8.19 3.12 11.31 0L160 289.94 262.56 392.5l21.15 21.15c3.12 3.12 8.19 3.12 11.31 0l22.63-22.63c3.12-3.12 3.12-8.19 0-11.31L193.94 256z"/></symbol><symbol viewBox="0 0 24 24" id="comment_svg" xmlns="http://www.w3.org/2000/svg"><path fill-rule="evenodd" d="M12.087 18L6 21.804V18H4a2 2 0 01-2-2V4a2 2 0 012-2h16a2 2 0 012 2v12a2 2 0 01-2 2h-7.913zM8 18.196L11.513 16H20V4H4v12h4v2.196z"/></symbol><symbol viewBox="0 0 310 310" id="facebook_svg" xmlns="http://www.w3.org/2000/svg"><path d="M81.703 165.106h33.981V305a5 5 0 005 5H178.3a5 5 0 005-5V165.765h39.064a5 5 0 004.967-4.429l5.933-51.502a5 5 0 00-4.966-5.572h-44.996V71.978c0-9.732 5.24-14.667 15.576-14.667h29.42a5 5 0 005-5V5.037a5 5 0 00-5-5h-40.545A39.746 39.746 0 00185.896 0c-7.035 0-31.488 1.381-50.804 19.151-21.402 19.692-18.427 43.27-17.716 47.358v37.752H81.703a5 5 0 00-5 5v50.844a5 5 0 005 5.001z"/></symbol><symbol viewBox="0 0 32 32" id="google-plus_svg" xmlns="http://www.w3.org/2000/svg"><path d="M11 7c-4.973 0-9 4.027-9 9s4.027 9 9 9 9-4.027 9-9c0-.617-.066-1.219-.188-1.8l-.046-.2H11v3h6c-.477 2.836-3.027 5-6 5-3.313 0-6-2.688-6-6 0-3.313 2.688-6 6-6 1.5 0 2.867.555 3.922 1.465l2.148-2.106A8.963 8.963 0 0011 7zm14 4v3h-3v2h3v3h2v-3h3v-2h-3v-3z"/></symbol><symbol viewBox="0 0 32 32" id="in_svg" xmlns="http://www.w3.org/2000/svg"><path d="M27.26 27.271h-4.733v-7.427c0-1.771-.037-4.047-2.475-4.047-2.468 0-2.844 1.921-2.844 3.916v7.557h-4.739V11.999h4.552v2.083h.061c.636-1.203 2.183-2.468 4.491-2.468 4.801 0 5.692 3.161 5.692 7.271v8.385zM7.115 9.912a2.75 2.75 0 01-2.751-2.756 2.753 2.753 0 112.751 2.756zm2.374 17.359H4.74V12h4.749zM29.636 0H2.36C1.057 0 0 1.031 0 2.307v27.387c0 1.276 1.057 2.307 2.36 2.307h27.271c1.301 0 2.369-1.031 2.369-2.307V2.307C32 1.031 30.932 0 29.631 0z"/></symbol><symbol viewBox="0 0 384.97 384.97" id="menu_svg" xmlns="http://www.w3.org/2000/svg"><path d="M12.03 84.212h360.909c6.641 0 12.03-5.39 12.03-12.03 0-6.641-5.39-12.03-12.03-12.03H12.03C5.39 60.152 0 65.541 0 72.182c0 6.641 5.39 12.03 12.03 12.03zm360.909 96.243H12.03c-6.641 0-12.03 5.39-12.03 12.03s5.39 12.03 12.03 12.03h360.909c6.641 0 12.03-5.39 12.03-12.03s-5.389-12.03-12.03-12.03zm0 120.303H12.03c-6.641 0-12.03 5.39-12.03 12.03 0 6.641 5.39 12.03 12.03 12.03h360.909c6.641 0 12.03-5.39 12.03-12.03.001-6.641-5.389-12.03-12.03-12.03z"/></symbol><symbol viewBox="0 0 1200 1200" id="path_svg" xmlns="http://www.w3.org/2000/svg"><path d="M600 0L0 1200h1200L600 0zm-46.143 416.089h92.284v158.644l-22.559 223.096h-47.168l-22.56-223.096V416.089h.003zm0 469.336h92.284v99.391h-92.284v-99.391z"/></symbol><symbol viewBox="0 0 430.114 430.114" id="place_svg" xmlns="http://www.w3.org/2000/svg"><path d="M356.208 107.051c-1.531-5.738-4.64-11.852-6.94-17.205C321.746 23.704 261.611 0 213.055 0 148.054 0 76.463 43.586 66.905 133.427v18.355c0 .766.264 7.647.639 11.089 5.358 42.816 39.143 88.32 64.375 131.136 27.146 45.873 55.314 90.999 83.221 136.106 17.208-29.436 34.354-59.259 51.17-87.933 4.583-8.415 9.903-16.825 14.491-24.857 3.058-5.348 8.9-10.696 11.569-15.672 27.145-49.699 70.838-99.782 70.838-149.104v-20.262c.001-5.347-6.627-24.081-7-25.234zm-141.963 92.142c-19.107 0-40.021-9.554-50.344-35.939-1.538-4.2-1.414-12.617-1.414-13.388v-11.852c0-33.636 28.56-48.932 53.406-48.932 30.588 0 54.245 24.472 54.245 55.06 0 30.587-25.305 55.051-55.893 55.051z"/></symbol><symbol viewBox="0 0 94 94" id="reddit_svg" xmlns="http://www.w3.org/2000/svg"><path d="M20.27 41.367a6.246 6.246 0 00-3.857-1.358c-3.451 0-6.26 2.81-6.26 6.264 0 2.002.971 3.847 2.535 5.009 1.302-3.725 3.945-7.11 7.582-9.915zm9.63 10.877c0-2.857 2.324-5.18 5.178-5.18s5.176 2.321 5.176 5.18c0 2.854-2.322 5.174-5.176 5.174s-5.178-2.32-5.178-5.174zm29.659 15.348c-2.604 2.609-6.701 3.876-12.516 3.876-.016 0-.027-.007-.043-.007-.016 0-.027.007-.043.007-5.816 0-9.91-1.267-12.52-3.876a1.222 1.222 0 01.002-1.723 1.223 1.223 0 011.723 0c2.127 2.13 5.658 3.166 10.795 3.166.016 0 .027.007.043.007.016 0 .027-.007.043-.007 5.135 0 8.666-1.036 10.797-3.166a1.223 1.223 0 011.723 0 1.222 1.222 0 01-.004 1.723zm-.616-10.174a5.18 5.18 0 01-5.176-5.174 5.183 5.183 0 015.176-5.18 5.182 5.182 0 015.174 5.18 5.18 5.18 0 01-5.174 5.174zM73.84 25.911a4.68 4.68 0 004.672-4.679 4.68 4.68 0 00-4.672-4.677 4.686 4.686 0 00-4.682 4.677 4.686 4.686 0 004.682 4.679zm3.744 14.098a6.225 6.225 0 00-4.014 1.478c3.617 2.828 6.227 6.234 7.488 9.979a6.21 6.21 0 002.789-5.193 6.268 6.268 0 00-6.263-6.264z"/><path d="M89 0H5a5 5 0 00-5 5v84a5 5 0 005 5h84a5 5 0 005-5V5a5 5 0 00-5-5zm-7.314 53.923c.148.866.242 1.741.242 2.634 0 12.859-15.742 23.321-35.092 23.321-19.348 0-35.088-10.462-35.088-23.321 0-.945.109-1.877.277-2.796a8.689 8.689 0 01-4.309-7.488c0-4.796 3.9-8.701 8.695-8.701 2.191 0 4.277.873 5.879 2.351 6.189-4.036 14.611-6.552 23.908-6.666l5.416-17.12a1.214 1.214 0 011.439-.817l14.17 3.335c1.037-2.646 3.604-4.531 6.615-4.531 3.92 0 7.109 3.19 7.109 7.11 0 3.924-3.189 7.114-7.109 7.114-3.926 0-7.117-3.19-7.117-7.114 0-.066.016-.124.021-.189l-13.148-3.096L48.74 33.3c8.889.317 16.92 2.818 22.85 6.746 1.611-1.558 3.719-2.475 5.994-2.475 4.797 0 8.699 3.905 8.699 8.701a8.624 8.624 0 01-4.597 7.651z"/></symbol><symbol viewBox="0 0 56.966 56.966" id="search_svg" xmlns="http://www.w3.org/2000/svg"><path d="M55.146 51.887L41.588 37.786A22.926 22.926 0 0046.984 23c0-12.682-10.318-23-23-23s-23 10.318-23 23 10.318 23 23 23c4.761 0 9.298-1.436 13.177-4.162l13.661 14.208c.571.593 1.339.92 2.162.92.779 0 1.518-.297 2.079-.837a3.004 3.004 0 00.083-4.242zM23.984 6c9.374 0 17 7.626 17 17s-7.626 17-17 17-17-7.626-17-17 7.626-17 17-17z"/></symbol><symbol viewBox="0 0 14 14" id="shape_svg" xmlns="http://www.w3.org/2000/svg"><path d="M14 1.41L12.59 0 7 5.59 1.41 0 0 1.41 5.59 7 0 12.59 1.41 14 7 8.41 12.59 14 14 12.59 8.41 7 14 1.41z"/></symbol><symbol viewBox="0 0 310 310" id="twitter_svg" xmlns="http://www.w3.org/2000/svg"><path d="M302.973 57.388a117.512 117.512 0 01-14.993 5.463 66.276 66.276 0 0013.494-23.73 5 5 0 00-7.313-5.824 117.994 117.994 0 01-34.878 13.783c-12.381-12.098-29.197-18.983-46.581-18.983-36.695 0-66.549 29.853-66.549 66.547 0 2.89.183 5.764.545 8.598C101.163 99.244 58.83 76.863 29.76 41.204a5.001 5.001 0 00-8.196.642c-5.896 10.117-9.013 21.688-9.013 33.461 0 16.035 5.725 31.249 15.838 43.137a56.37 56.37 0 01-8.907-3.977 5 5 0 00-7.427 4.257c-.007.295-.007.59-.007.889 0 23.935 12.882 45.484 32.577 57.229a57.372 57.372 0 01-5.063-.735 4.998 4.998 0 00-5.699 6.437c7.29 22.76 26.059 39.501 48.749 44.605-18.819 11.787-40.34 17.961-62.932 17.961a120.4 120.4 0 01-14.095-.826 5 5 0 00-3.286 9.174c29.023 18.609 62.582 28.445 97.047 28.445 67.754 0 110.139-31.95 133.764-58.753 29.46-33.421 46.356-77.658 46.356-121.367 0-1.826-.028-3.67-.084-5.508 11.623-8.757 21.63-19.355 29.773-31.536a5 5 0 00-6.182-7.351z"/></symbol><symbol viewBox="0 0 310 310" id="youtube_svg" xmlns="http://www.w3.org/2000/svg"><path d="M297.917 64.645c-11.19-13.302-31.85-18.728-71.306-18.728H83.386c-40.359 0-61.369 5.776-72.517 19.938C0 79.663 0 100.008 0 128.166v53.669c0 54.551 12.896 82.248 83.386 82.248h143.226c34.216 0 53.176-4.788 65.442-16.527C304.633 235.518 310 215.863 310 181.835v-53.669c0-29.695-.841-50.16-12.083-63.521zm-98.896 97.765l-65.038 33.991a9.997 9.997 0 01-14.632-8.863v-67.764a10 10 0 0114.609-8.874l65.038 33.772a10 10 0 01.023 17.738z"/></symbol></svg>